<mxfile host="app.diagrams.net" modified="2023-06-25T11:44:04.312Z" agent="Mozilla/5.0 (Macintosh; Intel Mac OS X 10_15_7) AppleWebKit/537.36 (KHTML, like Gecko) Chrome/114.0.0.0 Safari/537.36 Edg/114.0.1823.58" version="21.5.0" etag="P3YNk-Saa_JQX7gNgP2_" type="github">
  <diagram name="第 1 页" id="87Yfs_Ntz_JQIKTqwcT3">
    <mxGraphModel>
      <root>
        <mxCell id="0" />
        <mxCell id="1" parent="0" />
      </root>
    </mxGraphModel>
  </diagram>
</mxfile>
